<svg width="149" height="130" viewBox="0 0 149 130" fill="none" xmlns="http://www.w3.org/2000/svg">
<path d="M134.449 0H14.5508C6.51875 0 0 6.47111 0 14.4444V115.556C0 123.529 6.51875 130 14.5508 130H134.449C142.481 130 149 123.529 149 115.556V14.4444C149 6.47111 142.481 0 134.449 0ZM14.5508 31.6911C14.5508 22.1578 22.35 14.4156 31.9535 14.4156C41.557 14.4156 49.3563 22.1578 49.3563 31.6911C49.3563 41.2244 41.557 48.9667 31.9535 48.9667C22.3209 48.9667 14.5508 41.2244 14.5508 31.6911ZM121.412 114.544H28.927C22.9611 114.544 19.5271 107.813 23.0484 103.047L40.9168 78.8667C43.3031 75.66 47.843 74.9667 51.0732 77.3067C51.6553 77.74 52.2082 78.26 52.6447 78.8667L60.5604 89.5556L83.5506 52.52C85.6459 49.1111 90.1275 48.0711 93.5615 50.1511C94.5219 50.7289 95.3367 51.5378 95.9479 52.52L127.61 103.538C129.706 106.947 128.658 111.396 125.224 113.476C124.089 114.169 122.779 114.544 121.412 114.544Z" fill="#9E9E9E"/>
</svg>
